<svg xmlns="http://www.w3.org/2000/svg" viewBox="0 0 394.45 704.1"><defs><style>.a,.m{fill:#e6e7e8;}.a{stroke:#000;stroke-width:16px;}.a,.b,.c,.d,.e,.f,.g,.h,.k,.m,.o{stroke-miterlimit:10;}.b,.c{fill:none;stroke:#4d2164;}.b{stroke-width:1.01px;}.c{stroke-width:3px;}.d{fill:#d1d3d4;stroke-width:2px;}.d,.e,.f,.g,.h{stroke:#a7a9ac;}.e,.f,.g,.h{fill:#f1f2f2;}.e{stroke-width:1.01px;}.f{stroke-width:0.97px;}.h{stroke-width:0.91px;}.i{font-size:52px;font-family:Verdana;}.i,.j,.k,.l,.n{fill:#231f20;}.j{font-size:130px;}.j,.n{font-family:LucidaSans, Lucida Sans;}.k{stroke:#e6e7e8;}.m,.o{stroke:#939598;}.n{font-size:24px;}.o{fill:#939598;stroke-width:1.17px;}</style></defs><polygon class="a" points="291.22 8 103.23 8 9.24 170.8 103.23 333.61 291.22 333.61 385.22 170.8 291.22 8"/><polygon class="b" points="282.85 23.29 111.61 23.29 25.99 170.8 111.61 318.31 282.85 318.31 368.47 170.8 282.85 23.29"/><polygon class="c" points="277.45 32.58 117 32.58 36.77 170.8 117 309.02 277.45 309.02 357.68 170.8 277.45 32.58"/><ellipse class="d" cx="196.95" cy="95.17" rx="37.62" ry="58.84"/><ellipse class="e" cx="196.93" cy="166.02" rx="37.62" ry="126.62"/><rect class="d" x="159.33" y="100.35" width="75.25" height="192.29"/><rect class="f" x="165.05" y="101.05" width="63.05" height="185.68"/><ellipse class="d" cx="120.66" cy="107" rx="22.65" ry="47.44"/><ellipse class="g" cx="120.66" cy="166.74" rx="22.65" ry="102.66"/><rect class="d" x="98" y="114.37" width="45.3" height="155.03"/><rect class="h" x="101.18" y="114.37" width="38.35" height="151.5"/><ellipse class="d" cx="273.23" cy="107" rx="22.65" ry="47.44"/><ellipse class="g" cx="273.23" cy="166.74" rx="22.65" ry="102.66"/><rect class="d" x="250.58" y="114.37" width="45.3" height="155.03"/><rect class="h" x="254.52" y="114.69" width="38.35" height="151.5"/><text class="i" transform="translate(40.85 185.38)"><tspan xml:space="preserve">SCH     L^R</tspan></text><text x="-3.08" y="-28.6"/><text class="j" transform="translate(146.42 211.56)">O</text><rect class="k" x="161.81" y="110.94" width="69.35" height="19.35"/><rect class="l" x="140.53" y="117.68" width="6.45" height="24.91" rx="3.23"/><rect class="l" x="143.21" y="111.32" width="0.82" height="7.48"/><rect class="l" x="127.99" y="213.56" width="139.47" height="126.54" rx="48.72"/><rect class="m" x="183.67" y="220.38" width="26.57" height="57.36" rx="7.51"/><polygon class="k" points="261.12 105.58 196.86 141.41 132.61 105.58 194.46 74.7 261.12 105.58"/><text class="n" transform="translate(177.75 160)">o-o<tspan x="12.64" y="28.8">_</tspan></text><rect class="o" x="188.75" y="228.74" width="2.38" height="41.66"/><rect class="o" x="202.79" y="228.74" width="2.38" height="41.66"/><rect class="o" x="195.77" y="228.4" width="2.38" height="41.66"/></svg>