<svg xmlns="http://www.w3.org/2000/svg" viewBox="0 0 391.4 394.45"><defs><style>.a{fill:#dedfe0;stroke-width:16px;}.a,.b,.c{stroke:#040303;}.a,.b,.c,.d,.e,.f,.g,.h,.i,.k,.m,.n,.p{stroke-miterlimit:10;}.b,.c{fill:none;}.b{stroke-width:1.01px;}.c{stroke-width:3px;}.d{fill:#b8babc;stroke:#888a8c;stroke-width:2px;}.e,.f,.g,.h,.i{fill:#f1f2f2;stroke:#a7a9ac;}.e{stroke-width:1.01px;}.f{stroke-width:0.97px;}.h{stroke-width:0.9px;}.i{stroke-width:0.9px;}.j{font-size:120px;}.j,.k,.l,.n,.o,.q{fill:#231f20;}.j,.o,.q{font-family:Verdana;}.k,.n{stroke:#e6e7e8;}.k{stroke-width:0.96px;}.m{fill:#e6e7e8;}.m,.p{stroke:#939598;}.o{font-size:24px;}.p{fill:#939598;stroke-width:1.17px;}.q{font-size:46px;}</style></defs><polygon class="a" points="197.08 9.24 34.28 103.23 34.28 291.22 197.08 385.22 359.89 291.22 359.89 103.23 197.08 9.24"/><polygon class="b" points="197.48 26.67 49.18 112.29 48.78 282.85 196.69 367.78 344.99 282.17 345.38 111.61 197.48 26.67"/><polygon class="c" points="197.45 37.41 58.49 117.64 58.13 277.45 196.71 357.04 335.67 276.82 336.04 117 197.45 37.41"/><path class="d" d="M162.41,124.77c0-32.49,17.12-78.3,37.9-78.3s37.35,45.81,37.35,78.3S220.81,183.61,200,183.61,162.41,157.27,162.41,124.77Z" transform="translate(-3.23 -2.18)"/><path class="e" d="M162.39,195.62c0-69.93,16.94-143.94,37.72-143.94s37.52,74,37.52,143.94S220.79,322.24,200,322.24,162.39,265.55,162.39,195.62Z" transform="translate(-3.23 -2.18)"/><rect class="d" x="159.19" y="127.77" width="75.25" height="192.29"/><rect class="f" x="164.9" y="128.47" width="63.05" height="185.68"/><ellipse class="d" cx="120.51" cy="134.42" rx="22.65" ry="47.44"/><ellipse class="g" cx="120.51" cy="194.17" rx="22.65" ry="102.66"/><rect class="d" x="97.86" y="141.79" width="45.3" height="155.03"/><rect class="h" x="101.33" y="144.11" width="37.77" height="149.19"/><ellipse class="d" cx="273.09" cy="134.42" rx="22.65" ry="47.44"/><ellipse class="g" cx="273.09" cy="194.17" rx="22.65" ry="102.66"/><rect class="d" x="250.43" y="141.79" width="45.3" height="155.03"/><rect class="i" x="254.37" y="144.11" width="38.35" height="149.51"/><text class="j" transform="translate(149.55 237.98)">O</text><rect class="k" x="164.9" y="144.11" width="63.96" height="19.35"/><rect class="l" x="140.39" y="144.11" width="6.45" height="24.91" rx="3.23"/><rect class="l" x="143.06" y="137.74" width="0.82" height="7.48"/><path class="l" d="M179.08,383.47h42c25.62-20.45,47.43-43.16,47.43-71.17V291.87c0-28-21.81-50.71-48.72-50.71h-42c-26.9,0-48.71,22.71-48.71,50.71V312.3C129.08,340.31,150.89,363,179.08,383.47Z" transform="translate(-3.23 -2.18)"/><rect class="m" x="183.53" y="246.8" width="26.57" height="57.36" rx="7.51"/><polygon class="n" points="260.97 132 196.72 167.83 132.46 132 194.31 101.13 260.97 132"/><text class="o" transform="translate(176.23 186.16)">o-o<tspan x="12.39" y="28.8">_</tspan></text><rect class="p" x="188.6" y="255.16" width="2.38" height="41.66"/><rect class="p" x="202.64" y="255.16" width="2.38" height="41.66"/><rect class="p" x="195.62" y="254.82" width="2.38" height="41.66"/><text class="q" transform="translate(58.59 209.52)"><tspan xml:space="preserve">SCH     L^R</tspan></text></svg>